# xmcd CD database file
#
# Track frame offsets:
#	150
#	26723
#	51508
#	80860
#
# Disc length: 1433 seconds
#
# Revision: 0
# Processed by: cddbd v1.5.2PL0 Copyright (c) Steve Scherf et al.
# Submitted via: CDex 1.70beta2
#
DISCID=34059704
DTITLE=ケイコ・リー - 誰よりも
DYEAR=2006
DGENRE=Jazz
TTITLE0=誰よりも（テレビ東京系「ワールド・ビジネスサテライト土曜版」エンディングテーマ曲）
TTITLE1=夢幻蒼
TTITLE2=スタンド・バイ・ミー
TTITLE3=ストリート・ライフ
EXTD=YEAR: 2006
EXTT0=
EXTT1=
EXTT2=
EXTT3=
PLAYORDER=
